<svg width="800" height="600" xmlns="http://www.w3.org/2000/svg">
 <!-- Created with Method Draw - http://github.com/duopixel/Method-Draw/ -->
 <g>
  <title>background</title>
  <rect fill="none" id="canvas_background" height="602" width="802" y="-1" x="-1"/>
  <g display="none" overflow="visible" y="0" x="0" height="100%" width="100%" id="canvasGrid">
   <rect fill="url(#gridpattern)" stroke-width="0" y="0" x="0" height="100%" width="100%"/>
  </g>
 </g>
 <g>
  <title>Layer 1</title>
  <path d="m46.5,517.453125c0,-3 2,-9 3,-15c1,-6 2.548939,-10.814026 4,-16c1.639034,-5.857788 1.881336,-16.025208 3,-21c0.90456,-4.022644 3.09544,-10.977356 4,-15c1.118664,-4.974792 3.167961,-8.920349 5,-13c2.206062,-4.912567 4.188171,-12.40683 8,-19c2.502586,-4.328644 5.692383,-8.410919 9,-13c2.614906,-3.627991 5,-8 7,-10c2,-2 4,-4 6,-5c2,-1 5.176971,-2.345184 10,-4c4.230072,-1.451385 18.044533,-5.798615 23,-7c7.07515,-1.715271 13.988785,-3.069824 20,-4c6.9879,-1.081299 15.953323,-1.499023 24,-2c3.992264,-0.248535 7,0 9,0c2,0 2.878555,2.493469 6,3c1.974182,0.320374 5.70546,2.346191 8,4c1.813995,1.307465 3.761078,2.415894 7,4c2.840729,1.389343 4,3 5,4c2,2 4.346191,3.705475 6,6c1.307449,1.813995 2.61731,4.076111 3,5c1.082397,2.613129 4.293625,3.726501 8,8c3.276016,3.777283 7,7 11,11c3,3 4.296997,5.613831 7,8c1.676331,1.479828 6.606415,6.549011 12,10c5.650543,3.615417 13.88681,7.295471 24,11c8.90799,3.263062 25.965973,5.499481 37,6c10.988708,0.498444 17.985229,-0.109467 25,-1c8.983276,-1.140442 15.03067,-2.912323 18,-4c5.05658,-1.852264 10.155334,-4.873901 15,-11c3.101471,-3.921844 5.399017,-7.898102 7,-15c1.337677,-5.933868 2.55835,-13.116211 4,-22c1.013092,-6.242889 3,-11 3,-16c0,-4 -0.689758,-8.034058 0,-15c0.502441,-5.074219 2.424713,-10.124756 4,-16c2.212677,-8.252533 3.345184,-12.176971 5,-17c2.177063,-6.345123 5.457916,-11.261017 10,-20c2.689117,-5.173859 4.173096,-6.852722 5,-8c1.307465,-1.813995 1.812653,-4.206818 4,-6c2.78833,-2.285889 6.708466,-4.672607 13,-7c3.867004,-1.430481 11.907776,-3.496216 16,-4c4.962524,-0.610931 9,0 13,0c6,0 8.881531,2.190277 12,4c3.867981,2.24469 6.563416,5.342346 9,8c4.327148,4.719727 10.60141,9.417084 20,18c5.767273,5.266754 10.880493,8.251953 17,11c4.912537,2.206055 12.920227,5.250854 22,8c10.912537,3.304047 27.022461,4.366547 30,4c4.092224,-0.503784 9.29364,-4.726501 13,-9c6.552002,-7.554535 17.954773,-20.264862 27,-33c3.376465,-4.753876 6,-10 8,-14c2,-4 3.382507,-10.143585 6,-20c1.623291,-6.112671 3.241516,-11.949707 5,-21c1.160156,-5.9711 0.798584,-11.044525 2,-16c1.715271,-7.07515 3.713196,-11.792908 6,-21c1.466248,-5.903397 1.986389,-13.193253 4,-21c2.690002,-10.429001 7,-16 10,-21c3,-5 6.428223,-10.423355 11,-16c3.586365,-4.37468 7.863281,-8.146805 10,-10c3.777283,-3.276016 5.638733,-6.442978 8,-8c4.495728,-2.964478 7.746765,-4.371338 12,-7c1.9021,-1.175568 3.82373,-2.486259 6,-3c0.973267,-0.229752 2.015015,0.24437 4,0c4.092224,-0.503777 7,-2 10,-2c3,0 6,0 7,0c1,0 5,0 7,0c1,0 1,-1 4,-2c3,-1 8.292908,-2.292892 9,-3c0.707092,-0.707108 1.029968,-0.511269 5,-1c4.092224,-0.503777 6,-2 6,-3l2,-1" id="svg_6" stroke-width="6.5" stroke="#7AD6CA" fill="none"/>
 </g>
</svg>